MusicData_ConcreteJungle_Pulse1Pulse2:
	instrument 11
	volume_const
	note_length M4_5, S16
	note G_, 3
	note D_, 3
	note_length M3, S16
	note F_, 3
	note_length M4_5, S16
	note G_, 3
	note D_, 3
	note_length M3, S16
	note G_, 3
	note_length M4_5, S16
	note F_, 3
	note C_, 3
	note_length M3, S16
	note D#, 3
	note_length M4_5, S16
	note F_, 3
	note C_, 3
	note_length M3, S16
	note F_, 3
	sound_ret

MusicData_ConcreteJungle_Pulse1_1:
	instrument 30
	volume_const
	note_length M3, S2
	pitch_slide 1, B_, 3
	note A_, 3
	note A_, 3
	sound_ret

MusicData_ConcreteJungle_Pulse1_2:
	instrument 11
	volume_const
	note_length M4_5, S2
	note G_, 3
	note_length M3, S32
	rest
	note F#, 3
	rest
	note F#, 3
	rest
	note F#, 3
	rest
	note F#, 3
	sound_ret

MusicData_ConcreteJungle_Pulse1_3:
	instrument 28
	volume_const
	note_length M3, S2
	note B_, 2
	note A_, 2
	note A_, 2
	sound_ret

MusicData_ConcreteJungle_Pulse1_4:
	instrument 28
	volume_const
	note_length M3, S2
	pitch_slide 2, B_, 2
	note A_, 2
	sound_ret

MusicData_ConcreteJungle_Pulse1_5:
	instrument 19
	volume_const
	note_length M1, S8
	note A#, 3
	note F_, 3
	note G_, 3
	note D_, 3
	note C_, 3
	rest
	note_length M3, S4
	rest
	sound_ret

MusicData_ConcreteJungle_Pulse2_1:
	instrument 15
	volume_const
	note_length M3, S8
	note G_, 3
	note_length M4_5, S16
	note D_, 3
	note_length M3, S16
	note F_, 3
	note_length M4_5, S16
	note G_, 3
	note D_, 3
	note_length M3, S16
	note G_, 3
	note_length M4_5, S16
	note F_, 3
	note C_, 3
	note_length M3, S16
	note D#, 3
	note_length M4_5, S16
	note F_, 3
	note C_, 3
	note_length M3, S16
	note F_, 3
	note_length M4_5, S16
	note G_, 3
	note D_, 3
	note_length M3, S16
	note F_, 3
	note_length M4_5, S16
	note G_, 3
	note D_, 3
	note_length M3, S16
	note G_, 3
	note_length M4_5, S16
	note F_, 3
	note C_, 3
	note_length M3, S16
	note D#, 3
	note_length M4_5, S16
	note F_, 3
	note C_, 3
	note_length M3, S16
	note F_, 3
	note_length M4_5, S16
	note G_, 3
	note D_, 3
	note_length M3, S16
	note F_, 3
	note_length M4_5, S16
	note G_, 3
	note D_, 3
	note_length M3, S16
	note G_, 3
	note_length M4_5, S16
	note F_, 3
	note C_, 3
	note_length M3, S16
	note D#, 3
	note_length M4_5, S16
	note F_, 3
	note C_, 3
	note_length M3, S32
	note F_, 3
	sound_ret

MusicData_ConcreteJungle_Pulse2_2:
	instrument 19
	volume_const
	note_length M4_5, S2
	note A#, 3
	note_length M3, S32
	rest
	note C_, 4
	rest
	note C_, 4
	rest
	note C_, 4
	rest
	note C_, 4
	note_length M4_5, S4
	note G_, 3
	note_length M3, S16
	note B_, 3
	note G_, 3
	note_length M4_5, S4
	note F_, 3
	note_length M3, S16
	note B_, 3
	note G_, 3
	note_length M4_5, S4
	note F_, 3
	note_length M3, S16
	note B_, 3
	note G_, 3
	note_length M3, S4
	pitch_slide 1, D_, 4
	note C_, 3
	note_length M4_5, S8
	tie
	note_length M3, S16
	rest
	instrument 30
	note_length M3, S4
	note D_, 3
	note_length M3, S16
	rest
	note D_, 3
	note D_, 3
	note D_, 3
	note_length M3, S4
	pitch_slide 2, D_, 4
	note C_, 3
	note_length M3, S16
	rest
	note D_, 3
	note D_, 3
	note D_, 3
	note_length M3, S4
	pitch_slide 2, D_, 4
	note C_, 3
	note_length M3, S16
	rest
	note D_, 3
	note D_, 3
	note D_, 3
	note_length M3, S32
	rest
	instrument 20
	note_length M1, S8
	note A#, 3
	note F_, 3
	note G_, 3
	note D_, 3
	note C_, 3
	rest
	note_length M4_5, S8
	rest
	note_length M3, S8
	rest
	sound_ret

MusicData_ConcreteJungle_Hill_1:
	instrument 0
	note_length M4_5, S32
	note G_, 3
	note_length M3, S64
	rest
	note_length M4_5, S32
	note G_, 3
	note_length M3, S64
	rest
	note_length M3, S16
	note G_, 3
	note_length M3, S64
	tie
	rest
	instrument 21
	note_length M3, S32
	note G_, 3
	rest
	note G_, 3
	note_length M3, S16
	note G_, 3
	note_length M3, S32
	note G_, 3
	note D_, 3
	note F_, 3
	note G_, 3
	instrument 0
	note_length M4_5, S32
	note F_, 3
	note_length M3, S64
	rest
	note_length M4_5, S32
	note F_, 3
	note_length M3, S64
	rest
	note_length M3, S16
	note F_, 3
	note_length M3, S64
	tie
	rest
	instrument 21
	note_length M3, S32
	note F_, 3
	rest
	note F_, 3
	note_length M3, S16
	note F_, 3
	note F_, 3
	note F_, 3
	sound_ret

MusicData_ConcreteJungle_Hill_2:
	instrument 0
	note_length M4_5, S2
	note E_, 3
	note_length M3, S32
	rest
	note D_, 3
	rest
	note D_, 3
	rest
	note D_, 3
	rest
	note D_, 3
	sound_ret

MusicData_ConcreteJungle_Hill_3:
	instrument 0
	note_length M4_5, S32
	note F_, 3
	note_length M3, S64
	rest
	note_length M4_5, S32
	note F_, 3
	note_length M3, S64
	rest
	note_length M3, S16
	note F_, 3
	note_length M3, S64
	tie
	rest
	instrument 21
	note_length M3, S32
	note F_, 3
	rest
	note F_, 3
	note_length M3, S16
	note F_, 3
	note_length M3, S32
	note F_, 3
	note C_, 3
	note D#, 3
	note F_, 3
	sound_ret

MusicData_ConcreteJungle_Hill_4:
	instrument 0
	note_length M4_5, S32
	note G_, 3
	note_length M3, S64
	rest
	note_length M4_5, S32
	note G_, 3
	note_length M3, S64
	rest
	note_length M3, S16
	note G_, 3
	note_length M3, S64
	tie
	rest
	instrument 21
	note_length M3, S32
	note G_, 3
	rest
	note G_, 3
	note_length M3, S16
	note G_, 3
	note G_, 3
	note G_, 3
	sound_ret

MusicData_ConcreteJungle_Hill_5:
	instrument 21
	note_length M1, S8
	note A#, 3
	note F_, 3
	note G_, 3
	note D_, 3
	note C_, 3
	rest
	note_length M3, S4
	rest
	sound_ret

MusicData_ConcreteJungle_Noise_1:
	drum_envelope DR1, M3, S8
	drum_note 3
	drum_note 3
	drum_note 3
	drum_note 3
	drum_envelope DR1, M3, S16
	drum_note 3
	drum_envelope DR1, M3, S32
	drum_note 4
	drum_note 4
	rest
	drum_note 4
	drum_note 5
	drum_note 5
	drum_note 5
	drum_note 5
	drum_note 5
	drum_note 6
	drum_note 6
	rest
	drum_note 6
	drum_note 6
	sound_ret

MusicData_ConcreteJungle_Noise_2:
	drum_envelope DR1, M3, S8
	drum_note 3
	drum_note 3
	drum_note 3
	drum_note 3
	drum_note 3
	drum_note 3
	drum_note 3
	drum_envelope DR1, M3, S32
	rest
	rest
	drum_note 3
	drum_note 3
	sound_ret

MusicData_ConcreteJungle_Noise_3:
	drum_envelope DR1, M3, S8
	drum_note 3
	drum_note 3
	drum_note 3
	drum_note 3
	drum_note 3
	drum_note 3
	drum_envelope DR1, M3, S32
	rest
	drum_note 3
	rest
	drum_note 3
	rest
	drum_note 3
	rest
	drum_note 3
	sound_ret

MusicData_ConcreteJungle_FDS_1:
	instrument 6
	volume_const
	note_length M3, S8
	note F_, 2
	note F_, 2
	note F_, 2
	note F_, 2
	note F_, 2
	note F_, 2
	note F_, 2
	note F_, 2
	sound_ret

MusicData_ConcreteJungle_FDS_2:
	instrument 6
	volume_const
	note_length M3, S8
	note F_, 2
	note_length M3, S16
	note F_, 2
	note F_, 2
	instrument 0
	note E_, 4
	tie
	instrument 6
	note F_, 2
	note F_, 2
	tie
	note F_, 2
	note F_, 2
	tie
	instrument 0
	note E_, 4
	tie
	instrument 6
	note F_, 2
	note F_, 2
	sound_ret

MusicData_ConcreteJungle_FDS_3:
	instrument 6
	volume_const
	note_length M3, S8
	note F_, 2
	note_length M3, S16
	note F_, 2
	note F_, 2
	instrument 0
	note E_, 4
	tie
	instrument 6
	note F_, 2
	note F_, 2
	tie
	note F_, 2
	note F_, 2
	tie
	instrument 0
	note E_, 4
	note E_, 4
	note E_, 4
	note E_, 4
	sound_ret

MusicData_ConcreteJungle_FDS_4:
	instrument 6
	volume_const
	note_length M3, S8
	note F_, 2
	note_length M3, S16
	note F_, 2
	note F_, 2
	instrument 0
	note_length M4_5, S8
	note E_, 4
	instrument 6
	note_length M3, S8
	note F_, 2
	instrument 0
	note E_, 4
	note E_, 4
	note E_, 4
	note_length M3, S16
	note E_, 4
	sound_ret

MusicData_ConcreteJungle_FDS_5:
	instrument 6
	volume_const
	note_length M1, S8
	note F_, 2
	note F_, 2
	note F_, 2
	note F_, 2
	note F_, 2
	tie
	note_length M3, S4
	tie
	sound_ret
