MusicData_Congrats_Pulse1:
	instrument 6
	volume_const
	note_length M3, S2
	pitch_slide 2, B_, 3
	note A_, 3
	note_length M4_5, S8
	tie
	note_length M3, S32
	rest
	note_length M3, S8
	note A_, 3
	note_length M4_5, S16
	tie
	note_length M3, S32
	rest
	note G#, 3

	note_length M3, S8
	tie
	note_length M4_5, S16
	tie
	note_length M3, S32
	rest
	note_length M3, S2
	note C#, 3
	note_length M3, S8
	tie
	rest

	note_length M3, S16
	rest
	note_length M4_5, S16
	note B_, 2
	note_length M3, S32
	rest
	note_length M4_5, S16
	note B_, 2
	note_length M3, S32
	rest
	note_length M4_5, S16
	note C_, 3
	note_length M3, S32
	rest
	note_length M4_5, S16
	note C_, 3
	note_length M3, S32
	rest
	note_length M4_5, S16
	note C#, 3
	note_length M3, S32
	rest
	note_length M4_5, S16
	note D_, 3
	note_length M3, S32
	rest
	note_length M4_5, S16
	note D#, 3
	note_length M3, S32
	rest
	note_length M4_5, S32
	note E_, 3
	note_length M3, S64
	rest

	note_length M3, S16
	note B_, 3
	note_length M3, S64
	tie
	note_length M4_5, S32
	pitch_slide 12, E_, 3
	tie
	instrument 17
	note_length M3, S32
	note A#, 3
	instrument 16
	note B_, 3
	instrument 15
	note A#, 3
	instrument 14
	note B_, 3
	instrument 13
	note A#, 3
	instrument 12
	note B_, 3
	instrument 11
	note A#, 3
	instrument 10
	note B_, 3
	instrument 9
	note A#, 3
	instrument 8
	note B_, 3
	instrument 7
	note A#, 3
	instrument 6
	note B_, 3
	note_length M4_5, S16
	note A_, 3
	note_length M3, S64
	rest
	note_length M4_5, S16
	note A#, 3
	note_length M3, S64
	rest
	note_length M4_5, S16
	note B_, 3
	note_length M3, S64
	rest
	note_length M4_5, S16
	note C_, 4
	note_length M3, S64
	rest

	note_length M3, S4
	note C#, 4
	volume_fade 0, 12
	note_length M4_5, S2
	tie
	sound_ret

MusicData_Congrats_Pulse2:
	instrument 0
	volume_const
	note_length M3, S2
	pitch_slide 2, D_, 4
	note C_, 4
	note_length M4_5, S8
	tie
	note_length M3, S32
	rest
	note_length M3, S8
	note C#, 4
	note_length M4_5, S16
	tie
	note_length M3, S32
	rest
	note B_, 3

	note_length M3, S8
	tie
	note_length M4_5, S16
	tie
	note_length M3, S64
	rest
	note_length M3, S2
	pitch_slide 2, G#, 3
	note F#, 3
	note_length M3, S8
	tie
	rest

	note_length M3, S16
	rest
	note_length M4_5, S16
	note E_, 3
	note_length M3, S32
	rest
	note_length M4_5, S16
	note F#, 3
	note_length M3, S32
	rest
	note_length M4_5, S16
	note G_, 3
	note_length M3, S32
	rest
	note_length M4_5, S16
	note A_, 3
	note_length M3, S32
	rest
	note_length M4_5, S16
	note A#, 3
	note_length M3, S32
	rest
	note_length M4_5, S16
	note B_, 3
	note_length M3, S32
	rest
	note_length M4_5, S16
	note C#, 4
	note_length M3, S32
	rest
	note_length M4_5, S32
	note B_, 3
	note_length M3, S64
	rest

	note_length M3, S16
	note E_, 4
	note_length M3, S64
	tie
	note_length M4_5, S32
	pitch_slide 4, B_, 3
	tie
	note_length M4_5, S4
	rest
	note_length M4_5, S16
	note B_, 3
	note_length M3, S64
	rest
	note_length M4_5, S16
	note C_, 4
	note_length M3, S64
	rest
	note_length M4_5, S16
	note C#, 4
	note_length M3, S32
	rest
	note_length M4_5, S16
	note D_, 4
	note_length M3, S32
	rest

	note_length M3, S4
	note D#, 4
	volume_fade 0, 14
	note_length M4_5, S2
	tie
	sound_ret

MusicData_Congrats_Hill_1:
	instrument 21
	note_length M3, S32
	note D_, 3
	note E_, 3
	note E_, 2
	note_length M3, S16
	note E_, 2
	note_length M3, S32
	note E_, 2
	note B_, 2
	note D_, 3
	note D_, 3
	note E_, 3
	note E_, 2
	note_length M3, S16
	note E_, 2
	note_length M3, S32
	note E_, 2
	note B_, 2
	note D_, 3
	note D_, 3
	note E_, 3
	note E_, 2
	note_length M3, S16
	note E_, 2
	note_length M3, S32
	note E_, 2
	note B_, 2
	note D_, 3
	note_length M3, S16
	note E_, 2
	note E_, 2
	note_length M3, S32
	note E_, 2
	note_length M3, S16
	note E_, 2
	note_length M3, S32
	note E_, 2
	sound_ret

MusicData_Congrats_Hill_2:
	instrument 21
	note_length M3, S16
	note E_, 2
	note_length M3, S32
	note D_, 3
	note E_, 3
	note_length M3, S16
	note E_, 2
	note_length M3, S32
	note D_, 3
	note E_, 3
	note_length M3, S16
	note E_, 2
	note_length M3, S32
	note D_, 3
	note E_, 3
	note_length M3, S16
	note E_, 2
	note_length M3, S32
	note D_, 3
	note E_, 3
	note_length M3, S16
	note E_, 2
	note_length M3, S32
	note D_, 3
	note E_, 3
	note_length M3, S16
	note E_, 2
	note_length M3, S32
	note D_, 3
	note E_, 3
	note_length M3, S16
	note E_, 2
	note_length M3, S32
	note D_, 3
	note E_, 3
	note_length M3, S16
	note D_, 2
	note_length M3, S32
	note C#, 3
	note D_, 3

	note_length M3, S8
	note E_, 3
	note D_, 3
	note B_, 2
	note A#, 2
	note_length M1, S8
	note A_, 3
	note A_, 3
	note A_, 3
	note G#, 3
	note G#, 3
	note G#, 3
	note G_, 3
	note G_, 3
	note G_, 3
	note F#, 3
	note F#, 3
	note F#, 3

	instrument 0
	note_length M3, S2
	note F_, 3
	note_length M4_5, S4
	tie
	note_length M3, S16
	tie
	note_length M4_5, S16
	rest
	sound_ret

MusicData_Congrats_Noise_1:
	drum_envelope DR3, M3, S16
	drum_note 14
	drum_envelope DR3, M3, S32
	drum_note 14
	drum_note 14
	rest
	drum_note 14
	drum_note 14
	drum_note 14
	drum_envelope DR3, M3, S16
	drum_note 14
	drum_envelope DR3, M3, S32
	drum_note 14
	drum_note 14
	drum_envelope DR3, M3, S16
	drum_note 14
	drum_envelope DR3, M3, S32
	drum_note 14
	drum_note 14
	sound_ret

MusicData_Congrats_Noise_2:
	drum_envelope DR3, M3, S16
	drum_note 14
	drum_envelope DR3, M3, S32
	drum_note 14
	drum_note 14
	drum_envelope DR3, M3, S16
	drum_note 14
	drum_envelope DR3, M3, S32
	drum_note 14
	drum_note 14
	drum_envelope DR3, M3, S16
	drum_note 14
	drum_envelope DR3, M3, S32
	drum_note 14
	drum_note 14
	drum_envelope DR3, M3, S16
	drum_note 14
	drum_envelope DR3, M3, S32
	drum_note 14
	drum_note 14
	drum_envelope DR3, M3, S16
	drum_note 14
	drum_envelope DR3, M3, S32
	drum_note 14
	drum_note 14
	drum_envelope DR3, M3, S16
	drum_note 14
	drum_envelope DR3, M3, S32
	drum_note 14
	drum_note 14
	drum_envelope DR3, M3, S16
	drum_note 14
	drum_envelope DR3, M3, S32
	drum_note 14
	drum_note 14
	drum_envelope DR3, M3, S16
	drum_note 14
	drum_envelope DR3, M3, S32
	drum_note 14
	drum_note 14

	drum_envelope DR3, M3, S2
	drum_note 14
	drum_envelope DR3, M3, S8
	drum_note 14
	drum_note 14
	drum_note 14
	drum_note 14

	drum_envelope DR3, M3, S2
	drum_note 14
	drum_envelope DR2, M3, S32
	drum_note 3
	drum_note 3
	drum_note 3
	drum_note 3
	drum_note 4
	drum_note 4
	drum_note 4
	drum_note 4
	drum_note 5
	drum_note 5
	drum_note 5
	drum_note 5
	drum_note 6
	drum_note 6
	drum_note 6
	drum_note 6
	sound_ret

MusicData_Congrats_DPCM:
	note_length M3, S1
	rest

	rest

	rest

	note_length M3, S16
	dpcm_note 5
	dpcm_note 0
	note_length M4_5, S4
	rest
	note_length M4_5, S2
	rest

	note_length M3, S1
	rest
	sound_ret

MusicData_Congrats_FDS:
	instrument 0
	volume_const
	note_length M3, S8
	rest
	note_length M3, S32
	note E_, 4
	note_length M4_5, S16
	note E_, 4
	note_length M3, S8
	tie
	note_length M3, S32
	note E_, 4
	note_length M4_5, S16
	note E_, 4
	note_length M3, S8
	tie
	note_length M3, S32
	note E_, 4
	note_length M4_5, S16
	note E_, 4
	note_length M3, S16
	note E_, 4
	note E_, 4
	note_length M3, S32
	note E_, 4
	note E_, 4
	tie
	note E_, 4

	note_length M3, S8
	rest
	note_length M3, S32
	note E_, 4
	note_length M4_5, S16
	note E_, 4
	note_length M3, S8
	tie
	note_length M3, S32
	note E_, 4
	note_length M4_5, S16
	note E_, 4
	note_length M3, S8
	tie
	note_length M3, S32
	note E_, 4
	note_length M4_5, S16
	note E_, 4
	note_length M3, S16
	note E_, 4
	note_length M3, S32
	note E_, 4
	note E_, 4
	note E_, 4
	note E_, 4
	note E_, 4
	note E_, 4

	note_length M3, S16
	note E_, 4
	instrument 15
	note D_, 5
	instrument 0
	note E_, 4
	instrument 15
	note E_, 5
	instrument 0
	note E_, 4
	instrument 15
	note E_, 5
	instrument 0
	note E_, 4
	instrument 15
	note F#, 5
	
	instrument 0
	note E_, 4
	instrument 15
	note G_, 5
	instrument 0
	note E_, 4
	instrument 15
	note G#, 5
	instrument 0
	note_length M3, S32
	note E_, 4
	note E_, 4
	note E_, 4
	note E_, 4
	note E_, 4
	note E_, 4
	note_length M3, S16
	note E_, 4

	instrument 15
	note F_, 5
	note_length M3, S64
	tie
	note_length M4_5, S32
	pitch_slide 31, F_, 4
	tie
	note_length M4_5, S4
	rest
	instrument 0
	note_length M1, S8
	note E_, 4
	note E_, 4
	note E_, 4
	note E_, 4
	note E_, 4
	note E_, 4
	note E_, 4
	note E_, 4
	note E_, 4
	note_length M3, S32
	note E_, 4
	note E_, 4
	note E_, 4
	note E_, 4

	note_length M1, S4
	note E_, 4
	note_length M3, S32
	note E_, 4
	note E_, 4
	note E_, 4
	note E_, 4
	note E_, 4
	tie
	note E_, 4
	note E_, 4
	note_length M1, S2
	rest
	sound_ret
