MusicData_CourseSelect_Pulse1:
	instrument 4
	volume_const
	note_length M1, S32
	note A_, 5
	rest
	note A_, 5
	rest
	note A_, 4
	rest
	note A_, 4
	rest
	note A_, 5
	rest
	note A_, 4
	rest
	note A_, 5
	rest
	note A_, 5
	rest
	note A_, 5
	rest
	note A_, 5
	rest
	note A_, 4
	rest
	note A_, 4
	rest
	note A_, 4
	rest
	note A_, 4
	rest
	note A_, 5
	rest
	note A_, 5
	rest
	note A_, 5
	rest
	note A_, 4
	rest
	note A_, 5
	rest
	note A_, 4
	rest
	note A_, 5
	rest
	note A_, 4
	rest
	note A_, 5
	rest
	note A_, 5
	rest
	note A_, 5
	rest
	note A_, 4
	rest
	note A_, 5
	rest
	note A_, 4
	rest
	note A_, 5
	rest
	note A_, 4
	rest
	note A_, 5
	rest
	note A_, 5
	rest
	note G_, 5
	rest
	note G_, 5
	rest
	note G_, 4
	rest
	note G_, 4
	rest
	note G_, 5
	rest
	note G_, 4
	rest
	note G_, 5
	rest
	note G_, 5
	rest
	note G_, 5
	rest
	note G_, 5
	rest
	note G_, 4
	rest
	note G_, 4
	rest
	note G_, 4
	rest
	note G_, 4
	rest
	note G_, 5
	rest
	note G_, 5
	rest
	note G_, 5
	rest
	note G_, 4
	rest
	note G_, 5
	rest
	note G_, 4
	rest
	note G_, 5
	rest
	note G_, 4
	rest
	note G_, 5
	rest
	note G_, 5
	rest
	note G_, 5
	rest
	note G_, 4
	rest
	note G_, 5
	rest
	note G_, 4
	rest
	note G_, 5
	rest
	note G_, 4
	rest
	note G_, 5
	rest
	note G_, 5
	rest
	sound_ret

MusicData_CourseSelect_Pulse2:
	instrument 4
	volume_const
	note_length M1, S32
	rest
	rest
	note A_, 5
	rest
	note A_, 5
	rest
	note A_, 4
	rest
	note A_, 4
	rest
	note A_, 5
	rest
	note A_, 4
	rest
	note A_, 5
	rest
	note A_, 5
	rest
	note A_, 5
	rest
	note A_, 5
	rest
	note A_, 4
	rest
	note A_, 4
	rest
	note A_, 4
	rest
	note A_, 4
	rest
	note A_, 5
	rest
	note A_, 5
	rest
	note A_, 5
	rest
	note A_, 4
	rest
	note A_, 5
	rest
	note A_, 4
	rest
	note A_, 5
	rest
	note A_, 4
	rest
	note A_, 5
	rest
	note A_, 5
	rest
	note A_, 5
	rest
	note A_, 4
	rest
	note A_, 5
	rest
	note A_, 4
	rest
	note A_, 5
	rest
	note A_, 4
	rest
	note A_, 5
	rest
	note A_, 5
	rest
	note G_, 5
	rest
	note G_, 5
	rest
	note G_, 4
	rest
	note G_, 4
	rest
	note G_, 5
	rest
	note G_, 4
	rest
	note G_, 5
	rest
	note G_, 5
	rest
	note G_, 5
	rest
	note G_, 5
	rest
	note G_, 4
	rest
	note G_, 4
	rest
	note G_, 4
	rest
	note G_, 4
	rest
	note G_, 5
	rest
	note G_, 5
	rest
	note G_, 5
	rest
	note G_, 4
	rest
	note G_, 5
	rest
	note G_, 4
	rest
	note G_, 5
	rest
	note G_, 4
	rest
	note G_, 5
	rest
	note G_, 5
	rest
	note G_, 5
	rest
	note G_, 4
	rest
	note G_, 5
	rest
	note G_, 4
	rest
	note G_, 5
	rest
	note G_, 4
	rest
	note G_, 5
	rest
	sound_ret

MusicData_CourseSelect_Hill:
	instrument 21
	note_length M1, S8
	note A_, 3
	note A_, 3
	note G_, 3
	note A_, 3
	note_length M1, S4
	pitch_slide 2, C_, 4
	note B_, 3
	note_length M1, S16
	note A_, 3
	rest
	note_length M1, S8
	note G_, 3
	rest
	note A_, 3
	note A_, 3
	note G_, 3
	note_length M1, S4
	note A_, 3
	note G_, 3
	note_length M1, S8
	note E_, 3
	note E_, 3
	note D_, 3
	note E_, 3
	note_length M1, S4
	pitch_slide 4, G_, 4
	note F#, 3
	note_length M1, S16
	note E_, 3
	rest
	note_length M1, S8
	note D_, 3
	rest
	note E_, 3
	rest
	note E_, 3
	note_length M1, S4
	note E_, 3
	note G_, 3
	sound_ret

MusicData_CourseSelect_Noise:
	drum_envelope DR1, M1, S4
	drum_note 3
	drum_note 3
	drum_note 3
	drum_note 3
	drum_note 3
	drum_note 3
	drum_note 3
	drum_note 3
	drum_note 3
	drum_note 3
	drum_note 3
	drum_note 3
	drum_note 3
	drum_note 3
	drum_note 3
	drum_envelope DR1, M1, S8
	drum_note 3
	drum_note 3
	sound_ret

MusicData_CourseSelect_FDS_1:
	instrument 6
	note_length M1, S4
	note F_, 2
	instrument 0
	note E_, 4
	instrument 6
	note_length M1, S8
	note F_, 2
	note F_, 2
	note_length M1, S4
	instrument 0
	note E_, 4
	sound_ret

MusicData_CourseSelect_FDS_2:
	instrument 6
	note_length M1, S4
	note F_, 2
	instrument 0
	note E_, 4
	instrument 6
	note_length M1, S8
	note F_, 2
	note F_, 2
	instrument 0
	note E_, 4
	note E_, 4
	sound_ret
