MusicData_FinalTrial_Pulse1:
	instrument 0
	volume_const
	note_length M1, S32
	note B_, 3
	note_length M1_5, S8
	pitch_slide 4, C_, 4
	tie
	note_length M1, S32
	rest
	instrument 21
	note_length M1, S16
	note D_, 4
	note C_, 4
	note B_, 3
	note A_, 3
	note G_, 3
	note_length M1_5, S16
	note B_, 3
	note_length M1, S32
	rest
	volume_fade 0, 5
	note_length M1, S2
	note C_, 4
	sound_ret

MusicData_FinalTrial_Pulse2:
	instrument 0
	volume_const
	note_length M1_5, S8
	pitch_slide 4, E_, 4
	note D_, 4
	note_length M1, S32
	tie
	rest
	instrument 21
	note_length M1, S16
	note F_, 4
	note E_, 4
	note D_, 4
	note C_, 4
	note B_, 3
	note_length M1_5, S16
	note D_, 4
	note_length M1, S32
	rest
	volume_fade 0, 5
	note_length M1, S2
	note G_, 4
	sound_ret

MusicData_FinalTrial_FDS:
	instrument 17
	volume_const
	note_length M1, S32
	note B_, 3
	note_length M1_5, S8
	pitch_slide 4, C_, 4
	tie
	note_length M1, S32
	rest
	instrument 18
	note_length M1, S16
	note D_, 4
	note C_, 4
	note B_, 3
	note A_, 3
	note G_, 3
	note_length M1_5, S16
	note B_, 3
	note_length M1, S32
	rest
	instrument 16
	volume_fade 0, 2
	note_length M1, S2
	note D_, 4
	sound_ret
