MusicData_HurryUp_Pulse1:
	instrument 21
	volume_const
	note_length M1, S16
	note G_, 3
	note G#, 3
	note C_, 4
	note D#, 4
	note F_, 3
	note G_, 3
	note A#, 3
	note D_, 4
	note D#, 4
	note D_, 4
	note D#, 4
	note D_, 4
	note D#, 4
	note D_, 4
	note F_, 4
	note_length M1_5, S16
	note G_, 4
	note_length M1, S32
	rest
	sound_ret

MusicData_HurryUp_Pulse2:
	instrument 3
	volume_const
	note_length M1_5, S4
	note D#, 3
	note_length M1, S8
	note F_, 3
	note_length M1, S4
	note G#, 3
	note A#, 3
	note_length M1, S32
	tie
	rest
	sound_ret

MusicData_HurryUp_Hill:
	instrument 0
	note_length M1_5, S16
	note C_, 3
	note_length M1, S32
	rest
	note_length M1_5, S16
	note C_, 3
	note_length M1, S32
	rest
	note_length M1_5, S16
	note C_, 3
	note_length M1, S32
	rest
	note_length M1_5, S16
	note G_, 3
	note_length M1, S32
	rest
	note_length M1_5, S8
	note G#, 3
	note_length M1, S32
	tie
	rest
	note_length M1_5, S16
	note G_, 3
	note_length M1, S32
	rest
	note G_, 3
	rest
	note_length M1_5, S16
	note G_, 3
	note_length M1, S32
	rest
	sound_ret

MusicData_HurryUp_FDS:
	instrument 6
	volume_const
	note_length M1, S4
	note F_, 2
	instrument 0
	note C#, 4
	instrument 6
	note F_, 2
	instrument 0
	note_length M1, S8
	note C_, 5
	note_length M1, S16
	note C_, 5
	note_length M1, S8
	note C_, 5
	sound_ret
