MusicData_LevelClear_Pulse1:
	instrument 21
	volume_const
	note_length M1, S16
	note E_, 2
	note A_, 2
	note B_, 2
	note C#, 3
	note B_, 2
	note_length M1, S8
	note A_, 2
	note_length M1, S16
	note A_, 2
	note C#, 3
	note_length M1, S4
	note C#, 3
	sound_ret

MusicData_LevelClear_Pulse2:
	instrument 21
	volume_const
	note_length M1_5, S4
	rest
	note_length M1, S16
	rest
	note C#, 3
	note E_, 3
	note_length M1, S4
	note E_, 3
	sound_ret

MusicData_LevelClear_Hill:
	instrument 21
	note_length M1, S16
	note A_, 2
	note A_, 2
	note A_, 2
	note A_, 2
	note A_, 2
	note_length M1, S8
	note A_, 2
	note_length M1, S16
	note A_, 2
	note_length M1, S4
	note A_, 2
	note_length M1, S16
	rest
	sound_ret

MusicData_LevelClear_FDS:
	instrument 1
	note_length M1, S16
	note E_, 4
	note E_, 4
	note E_, 4
	tie
	note E_, 4
	note E_, 4
	note E_, 4
	note E_, 4
	note A#, 3
	note_length M1, S8
	note A#, 3
	sound_ret