MusicData_LuckySlot_Pulse1_1:
	instrument 2
	volume_const
	note_length M1, S4
	note A_, 3
	note_length M1_5, S8
	note C#, 4
	pitch_slide 2, G#, 4
	note F#, 4
	note_length M1_5, S4
	tie
	sound_ret

MusicData_LuckySlot_Pulse1_2
	instrument 2
	volume_const
	note_length M1, S32
	note A_, 4
	rest
	note G#, 4
	rest
	note F#, 4
	rest
	note E_, 4
	rest
	note G#, 4
	rest
	note F#, 4
	rest
	note E_, 4
	rest
	note D_, 4
	rest
	note F#, 4
	rest
	note E_, 4
	rest
	note D_, 4
	rest
	note C#, 4
	rest
	note E_, 4
	rest
	note D_, 4
	rest
	note C#, 4
	rest
	note B_, 3
	rest
	note A_, 3
	rest
	note A_, 3
	rest
	note A_, 3
	rest
	note B_, 3
	rest
	note_length M1_5, S2
	rest
	sound_ret

MusicData_LuckySlot_Pulse2:
	instrument 5
	volume_const
	note_length M1_5, S4
	note A_, 3
	note_length M1_5, S8
	note C#, 4
	pitch_slide 2, G#, 4
	note F#, 4
	note_length M1_5, S4
	tie
	note_length M1, S4
	note A_, 3
	note_length M1_5, S8
	note C#, 4
	pitch_slide 2, G#, 4
	note F#, 4
	note_length M1_5, S4
	tie

	note_length M1, S4
	note A_, 3
	note_length M1_5, S8
	note C#, 4
	pitch_slide 2, G#, 4
	note F#, 4
	note_length M1_5, S4
	tie
	note_length M1, S4
	note A_, 3
	note_length M1_5, S8
	note C#, 4
	pitch_slide 2, G#, 4
	note F#, 4
	note_length M1_5, S4
	tie

	note_length M1, S32
	note A_, 4
	rest
	note G#, 4
	rest
	note F#, 4
	rest
	note E_, 4
	rest
	note G#, 4
	rest
	note F#, 4
	rest
	note E_, 4
	rest
	note D_, 4
	rest
	note F#, 4
	rest
	note E_, 4
	rest
	note D_, 4
	rest
	note C#, 4
	rest
	note E_, 4
	rest
	note D_, 4
	rest
	note C#, 4
	rest
	note B_, 3
	rest
	note A_, 3
	rest
	note A_, 3
	rest
	note A_, 3
	rest
	note B_, 3
	rest
	note_length M1, S8
	rest
	note_length M1, S2
	rest
	sound_ret

MusicData_LuckySlot_Hill_1:
	instrument 0
	note_length M1, S8
	note A_, 3
	note_length M1_5, S16
	tie
	note_length M1, S32
	rest
	note_length M1, S8
	note A_, 3
	note_length M1, S32
	tie
	rest
	note_length M1, S8
	note A_, 3
	note_length M1_5, S16
	tie
	rest
	note_length M1, S32
	note A_, 3
	note_length M1_5, S16
	rest
	note_length M1, S32
	note A_, 3
	note_length M1_5, S16
	rest
	sound_ret

MusicData_LuckySlot_Hill_2:
	instrument 0
	note_length M1, S32
	note A_, 4
	rest
	note G#, 4
	rest
	note F#, 4
	rest
	note E_, 4
	rest
	note G#, 4
	rest
	note F#, 4
	rest
	note E_, 4
	rest
	note D_, 4
	rest
	note F#, 4
	rest
	note E_, 4
	rest
	note D_, 4
	rest
	note C#, 4
	rest
	note E_, 4
	rest
	note D_, 4
	rest
	note C#, 4
	rest
	note B_, 3
	rest
	note A_, 3
	rest
	note A_, 3
	rest
	note A_, 3
	rest
	note B_, 3
	rest
	note_length M1_5, S2
	rest
	sound_ret

MusicData_LuckySlot_Noise:
	drum_envelope DR2, M1, S16
	drum_note 1
	drum_envelope DR1, M1, S16
	drum_note 1
	drum_note 1
	drum_note 1
	sound_ret

MusicData_LuckySlot_FDS_1:
	instrument 6
	volume_const
	note_length M1, S4
	note F_, 2
	note_length M1_5, S8
	note F_, 2
	note_length M1, S16
	note F_, 2
	note_length M1, S4
	tie
	instrument 9
	note_length M1, S8
	note D#, 5
	note D#, 5
	instrument 6
	note_length M1, S4
	note F_, 2
	note_length M1_5, S8
	note F_, 2
	note_length M1, S16
	note F_, 2
	note_length M1, S4
	tie
	instrument 9
	note_length M1, S16
	note D#, 5
	note D#, 5
	note D#, 5
	note D#, 5
	sound_ret

MusicData_LuckySlot_FDS_2:
	instrument 9
	note_length M1, S16
	note D#, 5
	tie
	note D#, 5
	note D#, 5
	note D#, 5
	tie
	note D#, 5
	note D#, 5
	note D#, 5
	tie
	note D#, 5
	note D#, 5
	note D#, 5
	tie
	note D#, 5
	note D#, 5
	note D#, 5
	note D#, 5
	note D#, 5
	note D#, 5
	tie
	note D#, 5
	note_length M1, S8
	note D#, 5
	note D#, 5
	note_length M1, S16
	note D#, 5
	note D#, 5
	tie
	note D#, 5
	note_length M1, S8
	note D#, 5
	sound_ret
