MusicData_Menu_Pulse1:
	instrument 10
	volume_fade 1, 5
	note_length M4_5, S8
	note D_, 4
	sound_ret

MusicData_Menu_Pulse2:
	instrument 2
	volume_const
	note_length M1, S16
	note F_, 3
	note A_, 3
	note F#, 3
	note A#, 3
	note G_, 3
	note B_, 3
	note C_, 4
	note_length M1, S8
	note E_, 4
	sound_ret

MusicData_Menu_Hill:
	instrument 0
	note_length M1, S16
	note G_, 2
	note G_, 3
	note G#, 2
	note G#, 3
	note A_, 2
	note A_, 3
	note D_, 3
	note_length M1, S8
	note D_, 4
	sound_ret

MusicData_Menu_FDS:
	instrument 8
	volume_const
	note_length M1, S16
	note C_, 3
	note C_, 3
	note C_, 3
	note C_, 3
	note C_, 3
	note C_, 3
	note_length M1_5, S8
	note C_, 3
	sound_ret
