MusicData_NumberMatch_Pulse1:
	instrument 19
	volume_const
	note_length M1, S16
	note G_, 4
	note G_, 3
	note F_, 4
	note G_, 3
	note D_, 4
	note D#, 4
	note_length M1_5, S4
	note E_, 4
	note_length M1, S4
	rest
	sound_ret

MusicData_NumberMatch_Pulse2:
	instrument 2
	volume_const
	note_length M1, S4
	note C_, 5
	instrument 3
	note C_, 5
	instrument 4
	note C_, 5
	instrument 5
	note C_, 5
	sound_ret

MusicData_NumberMatch_Hill:
	instrument 6
	note_length M1, S16
	note G_, 3
	note G_, 2
	note F_, 3
	note G_, 2
	note F_, 3
	note F#, 3
	note_length M1_5, S4
	note G_, 3
	note_length M1, S4
	rest
	sound_ret

MusicData_NumberMatch_FDS:
	instrument 6
	volume_const
	note_length M1, S16
	note F_, 2
	note F_, 2
	note F_, 2
	note F_, 2
	note F_, 2
	note F_, 2
	note_length M1, S4
	note F_, 2
	instrument 13
	note_length M1, S32
	note D#, 5
	instrument 12
	note D#, 5
	instrument 11
	note D#, 5
	instrument 10
	note D#, 5
	instrument 9
	note_length M1, S4
	note D#, 5
	sound_ret
