MusicData_SuperSonicBreak_Pulse1_1:
	instrument 0
	volume_fade 1, 11
	note_length M1, S1
	note C#, 4
	note_length M1_5, S2
	tie
	note_length M1, S4
	rest

	note_length M1, S1
	note D_, 4
	note_length M1_5, S2
	tie
	note_length M1, S4
	rest
	sound_ret

MusicData_SuperSonicBreak_Pulse1_2:
	instrument 0
	volume_fade 1, 11
	note_length M1, S1
	note E_, 4
	note_length M1_5, S2
	tie
	note_length M1, S4
	rest
	sound_ret


MusicData_SuperSonicBreak_Pulse1_3:
	instrument 0
	volume_const
	note_length M1, S1
	note E_, 4
	note_length M1_5, S2
	tie
	note_length M1, S4
	rest
	sound_ret

MusicData_SuperSonicBreak_Pulse1Pulse2:
	instrument 2
	volume_const
	note_length M1, S32
	note B_, 4
	tie
	rest
	instrument 5
	note B_, 4
	instrument 2
	note C#, 5
	tie
	rest
	instrument 5
	note C#, 5
	instrument 2
	note B_, 4
	tie
	rest
	instrument 5
	note B_, 4
	instrument 2
	note C#, 5
	tie
	rest
	instrument 5
	note C#, 5
	instrument 2
	note E_, 5
	tie
	rest
	instrument 5
	note E_, 5
	instrument 2
	note C#, 5
	tie
	rest
	instrument 5
	note C#, 5
	instrument 2
	note B_, 4
	tie
	rest
	instrument 5
	note B_, 4
	instrument 2
	note C#, 5
	tie
	rest
	instrument 5
	note C#, 5
	sound_ret

MusicData_SuperSonicBreak_Pulse1_4:
	instrument 0
	volume_fade 1, 2
	note_length M1, S2
	rest
	note_length M1, S16
	note B_, 3
	note_length M1_5, S4
	pitch_slide 1, C#, 2
	tie
	note_length M1, S16
	rest
	volume_const
	note_length M1, S1
	note B_, 3

	tie
	note_length M1_5, S2
	tie
	note_length M1, S4
	rest

	note_length M1, S2
	rest
	note_length M1, S16
	note B_, 3
	note_length M1_5, S4
	pitch_slide 1, C#, 2
	tie
	note_length M1, S16
	rest
	volume_const
	note_length M1, S1
	note B_, 3
	sound_ret

MusicData_SuperSonicBreak_Pulse2_1:
	instrument 2
	volume_const
	note_length M1, S32
	note B_, 4
	tie
	rest
	instrument 5
	note B_, 4
	instrument 2
	note C#, 5
	tie
	rest
	instrument 5
	note C#, 5
	instrument 2
	note B_, 4
	tie
	rest
	instrument 5
	note B_, 4
	instrument 2
	note C#, 5
	tie
	rest
	instrument 5
	note C#, 5
	instrument 2
	note F#, 5
	tie
	rest
	instrument 5
	note F#, 5
	instrument 2
	note C#, 5
	tie
	rest
	instrument 5
	note C#, 5
	instrument 2
	note B_, 4
	tie
	rest
	instrument 5
	note B_, 4
	instrument 2
	note C#, 5
	tie
	rest
	instrument 5
	note C#, 5
	sound_ret

MusicData_SuperSonicBreak_Pulse2_2:
	instrument 2
	volume_const
	note_length M1, S32
	note B_, 4
	tie
	rest
	instrument 5
	note B_, 4
	instrument 2
	note C#, 5
	tie
	rest
	instrument 5
	note C#, 5
	instrument 2
	note B_, 4
	tie
	rest
	instrument 5
	note B_, 4
	instrument 2
	note C#, 5
	tie
	rest
	instrument 5
	note C#, 5
	instrument 2
	note G#, 5
	tie
	rest
	instrument 5
	note G#, 5
	instrument 2
	note C#, 5
	tie
	rest
	instrument 5
	note C#, 5
	instrument 2
	note B_, 4
	tie
	rest
	instrument 5
	note B_, 4
	instrument 2
	note C#, 5
	tie
	rest
	instrument 5
	note C#, 5
	sound_ret

MusicData_SuperSonicBreak_Pulse2_3:
	instrument 0
	volume_const
	note_length M1, S1
	rest
	rest
	sound_ret

MusicData_SuperSonicBreak_Hill_1:
	instrument 0
	note_length M1, S16
	note A_, 2
	rest
	note A_, 2
	rest
	note A_, 2
	rest
	note A_, 2
	rest
	note_length M1_5, S4
	rest
	note_length M1, S16
	note A_, 2
	rest
	note A_, 2
	rest
	note A_, 2
	rest
	note A_, 2
	rest
	note_length M1, S2
	rest
	note_length M1, S16
	note A_, 2
	rest
	note B_, 2
	rest
	note B_, 2
	rest
	note B_, 2
	rest
	note B_, 2
	rest
	note_length M1_5, S4
	rest
	note_length M1, S16
	note B_, 2
	rest
	note B_, 2
	rest
	note B_, 2
	rest
	note B_, 2
	rest
	note_length M1, S2
	rest
	note_length M1, S16
	note B_, 2
	rest
	note C#, 3
	rest
	note C#, 3
	rest
	note C#, 3
	rest
	note C#, 3
	rest
	note_length M1_5, S4
	rest
	note_length M1, S16
	note C#, 3
	rest
	note C#, 3
	rest
	note C#, 3
	rest
	note C#, 3
	rest
	note_length M1, S2
	rest
	note_length M1, S16
	note C#, 3
	rest
	sound_ret

MusicData_SuperSonicBreak_Hill_2:
	instrument 0
	note_length M1, S16
	note A_, 2
	rest
	note A_, 2
	rest
	note A_, 2
	rest
	note A_, 2
	rest
	note_length M1_5, S4
	rest
	note_length M1, S16
	note A_, 2
	rest
	note A_, 2
	rest
	note A_, 2
	rest
	note A_, 2
	rest
	note_length M1, S2
	rest
	note_length M1, S16
	note E_, 2
	rest
	sound_ret

MusicData_SuperSonicBreak_Hill_3:
	instrument 0
	note_length M1, S16
	note D_, 2
	rest
	note D_, 2
	rest
	note D_, 2
	rest
	note D_, 2
	rest
	note_length M1_5, S4
	rest
	note_length M1, S16
	note D_, 2
	rest
	note D_, 2
	rest
	note D_, 2
	rest
	note D_, 2
	rest
	note_length M1, S2
	rest
	note_length M1, S16
	note E_, 2
	rest
	sound_ret

MusicData_SuperSonicBreak_Noise:
	drum_envelope DR2, M1, S4
	drum_note 1
	sound_ret

MusicData_SuperSonicBreak_FDS_1:
	instrument 7
	volume_const
	note_length M1, S4
	note F_, 2
	note F_, 2
	instrument 9
	note D#, 5
	note_length M1, S8
	tie
	instrument 7
	note F_, 2
	sound_ret

MusicData_SuperSonicBreak_FDS_2:
	instrument 7
	volume_const
	note_length M1, S4
	note F_, 2
	note F_, 2
	instrument 9
	note D#, 5
	tie
	sound_ret
