MusicData_TWUIO_Pulse1_1:
	instrument 18
	volume_fade 1, 14
	note_length M1, S0_5
	note C_, 5
	sound_ret

MusicData_TWUIO_Pulse1_2:
	instrument 2
	volume_const
	note_length M1, S4
	note F_, 4
	note A_, 4
	note_length M1_5, S4
	note G_, 4
	note_length M1, S8
	note A#, 4
	note_length M1, S1
	note C_, 5
	sound_ret

MusicData_TWUIO_Pulse1_3:
	instrument 2
	volume_const
	note_length M1, S4
	note A_, 4
	note C_, 5
	note_length M1_5, S4
	note A#, 4
	note_length M1, S8
	note E_, 5
	note_length M1, S1
	note F_, 5

	note_length M1, S4
	note C_, 4
	note E_, 4
	note D_, 4
	note F_, 4
	note_length M1, S2
	note A_, 4
	note A#, 4

	note C_, 5
	note E_, 5
	note F_, 5
	note A_, 5

	note_length M1, S16
	note A#, 5
	note A_, 5
	note G_, 5
	note F_, 5
	note G_, 5
	note F_, 5
	note D#, 5
	note D_, 5
	note F_, 5
	note D#, 5
	note D_, 5
	note C_, 5
	note D#, 5
	note D_, 5
	note C_, 5
	note A#, 4
	note C_, 4
	note D#, 4
	note G_, 4
	note A#, 4
	note D_, 5
	note C_, 5
	note A#, 4
	note G#, 4
	note A#, 4
	note D_, 5
	note C_, 5
	note F_, 5
	note D#, 5
	note D_, 5
	note C_, 5
	note A#, 4

	note_length M1, S2
	note F_, 4
	note A_, 4
	note_length M1, S8
	note F_, 4
	note A_, 4
	note C_, 5
	note A_, 4
	note A#, 4
	note C_, 5
	note D_, 5
	note E_, 5
	sound_ret

MusicData_TWUIO_Pulse2_1:
	instrument 2
	volume_const
	note_length M1_5, S16
	note E_, 4
	note_length M1, S32
	rest
	note E_, 4
	rest
	note E_, 4
	rest
	note E_, 4
	rest
	note E_, 4
	rest
	note E_, 4
	rest
	note E_, 4
	rest
	note_length M1_5, S16
	note E_, 4
	note_length M1, S32
	rest
	note E_, 4
	rest
	note E_, 4
	rest
	note E_, 4
	rest
	note E_, 4
	rest
	note E_, 4
	rest
	note E_, 4
	rest
	note_length M1_5, S16
	note E_, 4
	note_length M1, S32
	rest
	note E_, 4
	rest
	note E_, 4
	rest
	note E_, 4
	rest
	note E_, 4
	rest
	note E_, 4
	rest
	note E_, 4
	rest
	note_length M1_5, S16
	note E_, 4
	note_length M1, S32
	rest
	note_length M1_5, S16
	note E_, 4
	note_length M1, S32
	rest
	note E_, 4
	rest
	note_length M1_5, S16
	note E_, 4
	rest

	note_length M1_5, S16
	note E_, 4
	note_length M1, S32
	rest
	note E_, 4
	rest
	note E_, 4
	rest
	note E_, 4
	rest
	note E_, 4
	rest
	note E_, 4
	rest
	note E_, 4
	rest
	note_length M1_5, S16
	note E_, 4
	note_length M1, S32
	rest
	note E_, 4
	rest
	note E_, 4
	rest
	note E_, 4
	rest
	note E_, 4
	rest
	note E_, 4
	rest
	note E_, 4
	rest
	note_length M1_5, S16
	note E_, 4
	note_length M1, S32
	rest
	note E_, 4
	rest
	note E_, 4
	rest
	note E_, 4
	rest
	note E_, 4
	rest
	note E_, 4
	rest
	note E_, 4
	rest
	note E_, 4
	rest
	note E_, 4
	rest
	note E_, 4
	rest
	note E_, 4
	rest
	note E_, 4
	rest
	note E_, 4
	rest
	note E_, 4
	rest
	note E_, 4
	rest
	sound_ret

MusicData_TWUIO_Pulse2_2:
	note_length M1_5, S16
	note F_, 4
	note_length M1, S32
	rest
	note F_, 4
	rest
	note F_, 4
	rest
	note F_, 4
	rest
	note F_, 4
	rest
	note F_, 4
	rest
	note F_, 4
	rest
	note_length M1_5, S16
	note F_, 4
	note_length M1, S32
	rest
	note F_, 4
	rest
	note F_, 4
	rest
	note F_, 4
	rest
	note F_, 4
	rest
	note F_, 4
	rest
	note F_, 4
	rest
	note_length M1_5, S16
	note G_, 4
	note_length M1, S32
	rest
	note G_, 4
	rest
	note G_, 4
	rest
	note G_, 4
	rest
	note G_, 4
	rest
	note G_, 4
	rest
	note G_, 4
	rest
	note_length M1_5, S16
	note A#, 4
	note_length M1, S32
	rest
	note A#, 4
	rest
	note A#, 4
	rest
	note_length M1_5, S16
	note D#, 5
	note_length M1, S32
	rest
	note_length M1, S8
	rest

	note_length M1, S2
	note C_, 4
	note C_, 4
	note_length M1, S4
	note C_, 4
	note C_, 4
	note_length M1, S16
	note C_, 4
	rest
	note C_, 4
	rest
	note C_, 4
	rest
	note C_, 4
	rest
	sound_ret

MusicData_TWUIO_Hill_1:
	instrument 0
	note_length M1_5, S16
	note C_, 2
	note_length M1, S32
	rest
	note_length M1_5, S8
	note C_, 3
	note_length M1, S32
	tie
	rest
	instrument 21
	note_length M1, S16
	note G_, 2
	note_length M1_5, S16
	note A_, 2
	note_length M1, S32
	rest
	instrument 0
	note_length M1_5, S4
	note A#, 2
	note_length M1_5, S16
	tie
	note_length M1, S32
	rest
	note_length M1_5, S16
	note C_, 2
	note_length M1, S32
	rest
	note_length M1_5, S8
	note C_, 3
	note_length M1, S32
	tie
	rest
	instrument 21
	note_length M1, S16
	note G_, 2
	note_length M1_5, S16
	note A_, 2
	note_length M1, S32
	rest
	note_length M1_5, S16
	note A#, 2
	note_length M1, S32
	rest
	note_length M1_5, S16
	note A#, 2
	note_length M1, S32
	rest
	note_length M1, S16
	note A#, 2
	instrument 0
	note_length M1_5, S8
	note A#, 2
	note_length M1, S32
	tie
	rest
	sound_ret

MusicData_TWUIO_Hill_2:
	instrument 0
	note_length M1_5, S16
	note C_, 2
	note_length M1, S32
	rest
	note_length M1_5, S8
	note C_, 3
	note_length M1, S32
	tie
	rest
	instrument 21
	note_length M1, S16
	note G_, 2
	note_length M1_5, S16
	note A_, 2
	note_length M1, S32
	rest
	instrument 0
	note_length M1_5, S4
	note A#, 2
	note_length M1_5, S16
	tie
	note_length M1_5, S16
	note F_, 2
	note_length M1, S32
	rest
	note_length M1_5, S8
	note F_, 3
	note_length M1, S32
	tie
	rest
	instrument 21
	note_length M1, S16
	note C_, 3
	note_length M1_5, S16
	note D_, 3
	note_length M1, S32
	rest
	note_length M1_5, S16
	note D#, 3
	note_length M1, S32
	rest
	note_length M1_5, S16
	note D#, 3
	note_length M1, S32
	rest
	note_length M1_5, S16
	note D_, 3
	note_length M1, S32
	rest
	note_length M1_5, S16
	note C#, 3
	note_length M1, S32
	rest
	sound_ret

MusicData_TWUIO_Hill_3:
	instrument 0
	note_length M1_5, S16
	note C_, 2
	note_length M1, S32
	rest
	note_length M1_5, S8
	note C_, 3
	note_length M1, S32
	tie
	rest
	instrument 21
	note_length M1, S16
	note G_, 2
	note_length M1_5, S16
	note G#, 2
	note_length M1, S32
	rest
	instrument 0
	note_length M1_5, S4
	note A#, 2
	note_length M1_5, S16
	tie
	note_length M1_5, S16
	note F_, 2
	note_length M1, S32
	rest
	note_length M1_5, S8
	note F_, 3
	note_length M1, S32
	tie
	rest
	instrument 21
	note_length M1, S16
	note C_, 3
	note_length M1_5, S16
	note D_, 3
	note_length M1, S32
	rest
	note_length M1_5, S16
	note D#, 3
	note_length M1, S32
	rest
	note_length M1_5, S16
	note D#, 3
	note_length M1, S32
	rest
	note_length M1_5, S16
	note D_, 3
	note_length M1, S32
	rest
	note_length M1_5, S16
	note C#, 3
	note_length M1, S32
	rest
	note_length M1_5, S16
	note A#, 2
	note_length M1, S32
	rest
	note_length M1_5, S16
	note A#, 3
	note_length M1, S32
	rest
	note_length M1_5, S16
	note A#, 2
	note_length M1, S32
	rest
	note_length M1_5, S16
	note A#, 3
	note_length M1, S32
	rest
	note_length M1_5, S16
	note G#, 2
	note_length M1, S32
	rest
	note_length M1_5, S16
	note G#, 3
	note_length M1, S32
	rest
	note_length M1_5, S16
	note G#, 2
	note_length M1, S32
	rest
	note_length M1_5, S16
	note G#, 3
	note_length M1, S32
	rest
	note_length M1_5, S16
	note F_, 2
	note_length M1, S32
	rest
	note_length M1_5, S16
	note F_, 3
	note_length M1, S32
	rest
	note_length M1_5, S16
	note F_, 2
	note_length M1, S32
	rest
	note_length M1_5, S16
	note F_, 3
	note_length M1, S32
	rest
	note_length M1_5, S16
	note F_, 2
	note_length M1, S32
	rest
	note_length M1_5, S16
	note F_, 3
	note_length M1, S32
	rest
	note_length M1_5, S16
	note C_, 2
	note_length M1, S32
	rest
	note_length M1_5, S16
	note C_, 3
	note_length M1, S32
	rest
	note_length M1_5, S16
	note F_, 2
	note_length M1, S32
	rest
	note_length M1_5, S16
	note F_, 3
	note_length M1, S32
	rest
	note_length M1_5, S16
	note F_, 2
	note_length M1, S32
	rest
	note_length M1_5, S16
	note F_, 3
	note_length M1, S32
	rest
	note_length M1_5, S16
	note F_, 2
	note_length M1, S32
	rest
	note_length M1_5, S16
	note F_, 3
	note_length M1, S32
	rest
	note_length M1_5, S16
	note C_, 2
	note_length M1, S32
	rest
	note_length M1_5, S16
	note C_, 3
	note_length M1, S32
	rest
	note_length M1_5, S16
	note F_, 2
	note_length M1, S32
	rest
	note_length M1_5, S16
	note F_, 3
	note_length M1, S32
	rest
	note_length M1_5, S16
	note F_, 2
	note_length M1, S32
	rest
	note_length M1_5, S16
	note F_, 3
	note_length M1, S32
	rest
	note_length M1_5, S16
	note F_, 2
	note_length M1, S32
	rest
	note_length M1_5, S16
	note F_, 3
	note_length M1, S32
	rest
	note_length M1_5, S16
	note F_, 2
	note_length M1, S32
	rest
	note_length M1_5, S16
	note F_, 3
	note_length M1, S32
	rest
	note_length M1_5, S16
	note A#, 2
	note_length M1, S32
	rest
	note_length M1_5, S16
	note A#, 3
	note_length M1, S32
	rest
	note_length M1_5, S16
	note A#, 2
	note_length M1, S32
	rest
	note_length M1_5, S16
	note A#, 3
	note_length M1, S32
	rest
	note_length M1_5, S16
	note C_, 3
	note_length M1, S32
	rest
	note_length M1_5, S16
	note C_, 4
	note_length M1, S32
	rest
	note_length M1_5, S16
	note C_, 3
	note_length M1, S32
	rest
	note_length M1_5, S16
	note C_, 4
	note_length M1, S32
	rest
	note_length M1_5, S16
	note D#, 3
	note_length M1, S32
	rest
	note_length M1_5, S16
	note D#, 4
	note_length M1, S32
	rest
	note_length M1_5, S16
	note D#, 3
	note_length M1, S32
	rest
	note_length M1_5, S16
	note D#, 4
	note_length M1, S32
	rest
	note_length M1_5, S16
	note G_, 3
	note_length M1, S32
	rest
	note_length M1_5, S16
	note G_, 4
	note_length M1, S32
	rest
	note_length M1_5, S16
	note G_, 3
	note_length M1, S32
	rest
	note_length M1_5, S16
	note G_, 4
	note_length M1, S32
	rest
	instrument 0
	note_length M1_5, S4
	note C_, 4
	note_length M1_5, S16
	tie
	note_length M1, S32
	rest
	note_length M1_5, S4
	note F_, 4
	note_length M1_5, S16
	tie
	note_length M1, S32
	rest
	note_length M1_5, S8
	note C_, 4
	note_length M1, S32
	tie
	rest
	note_length M1_5, S8
	note F_, 4
	note_length M1, S32
	tie
	rest
	note_length M1_5, S16
	note C_, 4
	note_length M1, S32
	rest
	note_length M1_5, S16
	note F_, 4
	note_length M1, S32
	rest
	note_length M1_5, S16
	note C_, 4
	note_length M1, S32
	rest
	note_length M1_5, S16
	note F_, 4
	note_length M1, S32
	rest
	sound_ret

MusicData_TWUIO_Noise:
	drum_envelope DR3, M1_5, S4
	drum_note 14
	drum_envelope DR3, M1, S4
	rest
	drum_note 14
	drum_note 14
	drum_note 14
	drum_note 14
	drum_note 14
	drum_envelope DR3, M1, S8
	drum_note 14

	rest
	drum_envelope DR3, M1, S4
	drum_note 14
	drum_note 14
	drum_note 14
	drum_note 14
	drum_note 14
	drum_envelope DR3, M1, S8
	drum_note 14
	drum_note 14
	drum_note 14
	drum_note 14
	drum_note 14

	rest
	drum_envelope DR3, M1, S4
	drum_note 14
	drum_note 14
	drum_note 14
	drum_note 14
	drum_note 14
	drum_note 14
	drum_note 14
	drum_envelope DR3, M1, S8
	drum_note 14

	rest
	drum_envelope DR3, M1, S4
	drum_note 14
	drum_note 14
	drum_note 14
	drum_note 14
	drum_note 14
	drum_note 14
	drum_envelope DR3, M1, S8
	drum_note 14
	drum_note 14
	drum_note 14

	drum_envelope DR3, M1_5, S4
	drum_note 14
	drum_envelope DR3, M1, S4
	rest
	drum_note 14
	drum_note 14
	drum_note 14
	drum_note 14
	drum_note 14
	drum_envelope DR3, M1, S8
	drum_note 14

	rest
	drum_envelope DR3, M1, S4
	drum_note 14
	drum_note 14
	drum_note 14
	drum_note 14
	drum_note 14
	drum_note 14
	drum_note 14
	drum_envelope DR3, M1, S8
	drum_note 14

	drum_envelope DR3, M1_5, S4
	drum_note 14
	drum_envelope DR3, M1, S4
	drum_note 14
	drum_note 14
	drum_note 14
	drum_note 14
	drum_note 14
	drum_note 14
	drum_envelope DR3, M1, S8
	drum_note 14

	drum_envelope DR3, M1, S2
	drum_note 14
	drum_note 14
	drum_envelope DR3, M1, S4
	drum_note 14
	drum_note 14
	drum_envelope DR3, M1, S8
	drum_note 11
	drum_note 11
	drum_note 11
	drum_note 11
	sound_ret

MusicData_TWUIO_FDS:
	instrument 6
	volume_const
	note_length M1, S2
	note F_, 2
	instrument 9
	note_length M1, S16
	note D#, 5
	tie
	note D#, 5
	note D#, 5
	note D#, 5
	tie
	note D#, 5
	note D#, 5
	note D#, 5
	tie
	note D#, 5
	note D#, 5
	note D#, 5
	tie
	note D#, 5
	note D#, 5
	note D#, 5
	tie
	note D#, 5
	note D#, 5
	note D#, 5
	tie
	note D#, 5
	note D#, 5

	note D#, 5
	tie
	note D#, 5
	note D#, 5
	note D#, 5
	tie
	note D#, 5
	note D#, 5
	note D#, 5
	tie
	note D#, 5
	note D#, 5
	note D#, 5
	tie
	note D#, 5
	note D#, 5
	note D#, 5
	tie
	note D#, 5
	note D#, 5
	note D#, 5
	tie
	note D#, 5
	note D#, 5
	note A#, 4
	tie
	note A#, 4
	note A#, 4
	note F_, 4
	tie
	note F_, 4
	note F_, 4

	note D#, 5
	tie
	note D#, 5
	note D#, 5
	note D#, 5
	tie
	note D#, 5
	note D#, 5
	note D#, 5
	tie
	note D#, 5
	note D#, 5
	note D#, 5
	tie
	note D#, 5
	note D#, 5
	note D#, 5
	tie
	note D#, 5
	note D#, 5
	note D#, 5
	tie
	note D#, 5
	note D#, 5
	note D#, 5
	tie
	note D#, 5
	note D#, 5
	note D#, 5
	tie
	note D#, 5
	note D#, 5

	note D#, 5
	tie
	note D#, 5
	note D#, 5
	note D#, 5
	tie
	note D#, 5
	note D#, 5
	note D#, 5
	tie
	note D#, 5
	note D#, 5
	note D#, 5
	tie
	note D#, 5
	note D#, 5
	note D#, 5
	tie
	note D#, 5
	note D#, 5
	note D#, 5
	tie
	note D#, 5
	note D#, 5
	instrument 0
	note E_, 4
	tie
	note E_, 4
	note E_, 4
	note E_, 4
	tie
	note E_, 4
	note E_, 4

	instrument 6
	note_length M1, S4
	note F_, 2
	instrument 0
	note E_, 4
	note_length M1, S8
	tie
	instrument 6
	note F_, 2
	instrument 0
	note E_, 4
	instrument 6
	note F_, 2
	tie
	note F_, 2
	instrument 0
	note E_, 4
	instrument 6
	note F_, 2
	tie
	note F_, 2
	instrument 0
	note E_, 4
	instrument 6
	note F_, 2

	tie
	note F_, 2
	instrument 0
	note E_, 4
	instrument 6
	note F_, 2
	tie
	note F_, 2
	instrument 0
	note E_, 4
	instrument 6
	note F_, 2
	tie
	note F_, 2
	instrument 0
	note E_, 4
	instrument 6
	note F_, 2
	tie
	note F_, 2
	instrument 0
	note E_, 4
	instrument 6
	note F_, 2

	note F_, 2
	tie
	instrument 0
	note E_, 4
	instrument 6
	note F_, 2
	tie
	note F_, 2
	instrument 0
	note E_, 4
	instrument 6
	note F_, 2
	tie
	note F_, 2
	instrument 0
	note E_, 4
	instrument 6
	note F_, 2
	tie
	note F_, 2
	instrument 0
	note E_, 4
	instrument 6
	note F_, 2

	instrument 0
	note G_, 3
	tie
	note E_, 4
	note E_, 4
	note G_, 3
	tie
	note E_, 4
	note E_, 4
	note_length M1, S4
	note G_, 3
	note G_, 3
	instrument 5
	note_length M1, S16
	note E_, 4
	note E_, 4
	note E_, 4
	note E_, 4
	note E_, 4
	note E_, 4
	note E_, 4
	note E_, 4
	sound_ret
