MusicData_TurnAndTry_IntroSilence:
	note_length M1, S2
	rest
	note_length M1, S8
	rest
	sound_ret

MusicData_TurnAndTry_Silence:
	note_length M1, S1
	rest
	sound_ret

MusicData_TurnAndTry_Pulse1Pulse2:
	instrument 0
	volume_const
	note_length M1, S64
	note F_, 3
	note_length M1_5, S32
	rest
	note_length M1, S64
	note G_, 3
	note_length M1_5, S32
	rest
	note_length M1, S64
	note F_, 3
	note_length M1_5, S32
	rest
	note_length M1, S64
	note G_, 3
	note_length M1_5, S32
	rest
	note_length M1, S64
	note F_, 3
	note_length M1_5, S32
	rest
	note_length M1, S32
	note G_, 3
	note_length M1_5, S16
	rest
	note_length M1, S64
	note F_, 3
	note_length M1_5, S32
	rest
	note_length M1, S64
	note G_, 3
	note_length M1_5, S32
	rest
	note_length M1, S64
	note F_, 3
	note_length M1_5, S32
	rest
	note_length M1, S64
	note G_, 3
	note_length M1_5, S32
	rest
	note_length M1, S64
	note F_, 3
	note_length M1_5, S32
	rest
	note_length M1, S32
	note F_, 3
	note_length M1_5, S16
	rest
	note_length M1, S64
	note F_, 3
	note_length M1_5, S32
	rest
	note_length M1, S64
	note G_, 3
	note_length M1_5, S32
	rest
	note_length M1, S64
	note D#, 3
	note_length M1_5, S32
	rest
	note_length M1, S64
	note F_, 3
	note_length M1_5, S32
	rest
	note_length M1, S64
	note D#, 3
	note_length M1_5, S32
	rest
	note_length M1, S64
	note F_, 3
	note_length M1_5, S32
	rest
	note_length M1, S64
	note D#, 3
	note_length M1_5, S32
	rest
	note_length M1, S32
	note F_, 3
	note_length M1_5, S16
	rest
	note_length M1, S64
	note D#, 3
	note_length M1_5, S32
	rest
	note_length M1, S64
	note F_, 3
	note_length M1_5, S32
	rest
	note_length M1, S64
	note D#, 3
	note_length M1_5, S32
	rest
	note_length M1, S64
	note F_, 3
	note_length M1_5, S32
	rest
	note_length M1, S64
	note D#, 3
	note_length M1_5, S32
	rest
	note_length M1, S32
	note D#, 3
	note_length M1_5, S16
	rest
	note_length M1, S64
	note D#, 3
	note_length M1_5, S32
	rest
	note_length M1, S64
	note F_, 3
	note_length M1_5, S32
	rest
	sound_ret

MusicData_TurnAndTry_Pulse1_1:
	instrument 23
	volume_const
	note_length M1, S8
	note C_, 3
	note_length M1, S16
	note C_, 3
	note C_, 3
	note C_, 3
	note F_, 3
	note G_, 3
	note_length M1, S2
	note A#, 3
	note_length M1, S16
	rest
	note_length M1, S8
	note A#, 2
	note_length M1, S16
	note A#, 2
	note A#, 2
	note A#, 2
	note D_, 3
	note G_, 3
	note_length M1, S2
	note G#, 3
	note_length M1, S16
	rest
	sound_ret

MusicData_TurnAndTry_Pulse1_2:
	instrument 23
	volume_const
	note_length M1, S4
	rest
	note_length M1, S16
	note D#, 3
	note D#, 3
	note_length M1_5, S4
	note D#, 3
	note_length M1, S16
	note D#, 3
	note F_, 3
	note D#, 3
	note F_, 3
	note_length M1, S4
	rest
	note_length M1, S16
	note D_, 3
	note D_, 3
	rest
	note D_, 3
	note_length M1, S4
	rest
	note_length M1, S16
	note D_, 3
	note D#, 3
	note D_, 3
	note D#, 3
	sound_ret

MusicData_TurnAndTry_Pulse1_3:
	instrument 10
	volume_fade 0, 14
	note_length M1, S0_5
	note C_, 2
	sound_ret

MusicData_TurnAndTry_Pulse2_1:
	instrument 23
	volume_const
	note_length M1, S4
	rest
	note_length M1, S16
	note G_, 3
	note G_, 3
	note_length M1_5, S4
	note G_, 3
	note_length M1, S16
	note G_, 3
	note G#, 3
	note G_, 3
	note G#, 3
	note_length M1, S4
	rest
	note_length M1, S16
	note F_, 3
	note F_, 3
	rest
	note F_, 3
	note_length M1, S4
	rest
	note_length M1, S16
	note F_, 3
	note G_, 3
	note F_, 3
	note G_, 3
	sound_ret

MusicData_TurnAndTry_Pulse2_2:
	instrument 10
	volume_fade 0, 14
	note_length M1, S0_5
	note G_, 2
	sound_ret

MusicData_TurnAndTry_Hill_1:
	instrument 21
	note_length M1_5, S8
	note C_, 3
	note_length M1, S16
	note C_, 3
	note C_, 4
	rest
	note_length M1, S8
	note C_, 3
	note_length M1, S16
	rest
	note C_, 4
	note_length M1, S8
	note C_, 3
	note C_, 4
	note C_, 4
	note_length M1_5, S8
	note A#, 3
	note_length M1, S16
	note A#, 2
	note A#, 2
	note_length M1, S8
	note A#, 2
	note_length M1, S16
	note A#, 3
	rest
	note A#, 2
	note_length M1, S8
	note A#, 2
	note_length M1, S16
	note A#, 3
	rest
	note_length M1, S8
	note A#, 2
	sound_ret

MusicData_TurnAndTry_Hill_2:
	instrument 21
	note_length M1, S8
	note A#, 2
	note_length M1_5, S4
	rest
	note_length M1, S2
	rest
	sound_ret

MusicData_TurnAndTry_Noise_1:
	drum_envelope DR0, M1, S16
	rest
	drum_envelope DR0, M1, S64
	rest
	drum_envelope DR0, M1, S32
	drum_note 5
	drum_envelope DR1, M1, S32
	drum_note 5
	drum_note 5
	drum_envelope DR2, M1, S16
	drum_note 5
	drum_envelope DR2, M1, S64
	rest
	drum_envelope DR2, M1, S16
	drum_note 5
	drum_note 5
	drum_note 6
	drum_note 6
	drum_note 6
	drum_note 7
	sound_ret

MusicData_TurnAndTry_Noise_2:
	drum_envelope DR2, M1, S8
	rest
	drum_envelope DR2, M1, S16
	drum_note 4
	drum_note 4
	drum_envelope DR2, M1, S8
	rest
	drum_note 4
	drum_envelope DR2, M1, S16
	rest
	drum_note 4
	rest
	drum_note 4
	drum_envelope DR2, M1, S8
	rest
	drum_note 4
	rest
	drum_envelope DR2, M1, S16
	drum_note 4
	drum_note 4
	drum_envelope DR2, M1, S8
	rest
	drum_note 4
	drum_envelope DR2, M1, S16
	rest
	drum_note 4
	rest
	drum_note 4
	drum_envelope DR2, M1, S4
	drum_note 4
	sound_ret

MusicData_TurnAndTry_Noise_3:
	drum_envelope DR2, M1, S1
	rest
	sound_ret

MusicData_TurnAndTry_DPCM_1:
	note_length M1_5, S2
	rest
	note_length M1, S8
	dpcm_note 3
	dpcm_note 5
	note_length M1_5, S2
	dpcm_note 0
	note_length M1, S8
	rest
	dpcm_note 4
	note_length M1_5, S2
	tie
	note_length M1, S8
	dpcm_note 0
	dpcm_note 5
	note_length M1, S1
	tie
	sound_ret

MusicData_TurnAndTry_DPCM_2:
	note_length M1_5, S8
	rest
	note_length M1, S16
	dpcm_note 5
	note_length M1_5, S2
	dpcm_note 0
	sound_ret

MusicData_TurnAndTry_FDS_1:
	instrument 6
	volume_const
	note_length M1_5, S8
	note F_, 2
	note_length M1, S16
	note F_, 2
	instrument 0
	note_length M1, S8
	note E_, 4
	instrument 6
	note F_, 2
	note_length M1, S16
	tie
	note F_, 2
	note_length M1, S8
	note F_, 2
	instrument 0
	note_length M1, S4
	note E_, 4
	sound_ret

MusicData_TurnAndTry_FDS_2:
	instrument 6
	volume_const
	note_length M1_5, S8
	note F_, 2
	note_length M1, S16
	note F_, 2
	instrument 0
	note_length M1, S8
	note E_, 4
	instrument 6
	note F_, 2
	note_length M1, S16
	tie
	note F_, 2
	note_length M1, S8
	note F_, 2
	instrument 0
	note E_, 4
	note E_, 4
	sound_ret

MusicData_TurnAndTry_FDS_3:
	instrument 6
	volume_const
	note_length M1_5, S8
	note F_, 2
	note_length M1, S16
	note F_, 2
	instrument 0
	note_length M1, S8
	note E_, 4
	instrument 6
	note F_, 2
	note_length M1, S16
	tie
	note F_, 2
	note_length M1, S8
	note F_, 2
	instrument 0
	note_length M1, S16
	note E_, 4
	note E_, 4
	note E_, 4
	note E_, 4
	sound_ret

MusicData_TurnAndTry_FDS_4:
	instrument 0
	volume_const
	note_length M1, S16
	note E_, 4
	note E_, 4
	tie
	note E_, 4
	instrument 6
	note F_, 2
	note F_, 2
	note F_, 2
	note F_, 2
	sound_ret

MusicData_TurnAndTry_FDS_5:
	instrument 6
	volume_const
	note_length M1_5, S8
	note F_, 2
	note_length M1, S16
	note F_, 2
	instrument 0
	note_length M1, S8
	note E_, 4
	instrument 6
	note F_, 2
	note_length M1, S16
	tie
	note F_, 2
	note_length M1, S8
	note F_, 2
	instrument 0
	note E_, 4
	instrument 6
	note F_, 2
	sound_ret
