MusicData_Tutorial_Pulse1:
	instrument 2
	volume_const
	note_length M1, S8
	rest
	note_length M1, S16
	note E_, 4
	note C_, 4
	note_length M1, S8
	note E_, 4
	note C_, 4
	note C_, 4
	note F_, 4
	note_length M1, S4
	note E_, 4
	note_length M1, S8
	rest
	note_length M1, S16
	note C_, 4
	note E_, 4
	note_length M1, S8
	note G_, 4
	note E_, 4
	note_length M1, S16
	note F_, 4
	note E_, 4
	note D_, 4
	note C_, 4
	note_length M1, S4
	note B_, 3
	note_length M1, S8
	rest
	note_length M1, S16
	note G_, 3
	note C_, 4
	note_length M1, S8
	note E_, 4
	note C_, 4
	note_length M1, S16
	note B_, 3
	note C_, 4
	note D_, 4
	note E_, 4
	note G_, 4
	note F_, 4
	note E_, 4
	note D_, 4
	note C_, 4
	note D_, 4
	note E_, 4
	note F_, 4
	note G_, 4
	note G_, 4
	note F_, 4
	note E_, 4
	note_length M1, S8
	note D_, 4
	note C_, 4
	note B_, 3
	note G_, 3
	sound_ret

MusicData_Tutorial_Pulse2:
	instrument 2
	volume_const
	note_length M1, S8
	rest
	note_length M1, S16
	note C_, 4
	note E_, 4
	note_length M1, S8
	note G_, 4
	note E_, 4
	note F_, 4
	note A_, 4
	note_length M1_5, S4
	note G_, 4
	note_length M1, S16
	note E_, 4
	note G_, 4
	note_length M1, S8
	note C_, 5
	note G_, 4
	note_length M1, S16
	note A_, 4
	note G_, 4
	note F_, 4
	note E_, 4
	note_length M1_5, S4
	note D_, 4
	note_length M1, S16
	note C_, 4
	note E_, 4
	note_length M1, S8
	note G_, 4
	note E_, 4
	note_length M1, S16
	note D_, 4
	note E_, 4
	note F_, 4
	note G_, 4
	note B_, 4
	note A_, 4
	note G_, 4
	note F_, 4
	note E_, 4
	note F_, 4
	note G_, 4
	note A_, 4
	note C_, 5
	note B_, 4
	note A_, 4
	note G_, 4
	note_length M1, S8
	note F_, 4
	note E_, 4
	note D_, 4
	note C_, 4
	sound_ret

MusicData_Tutorial_Hill:
	instrument 0
	note_length M1, S8
	note C_, 2
	note C_, 3
	note C_, 2
	note C_, 3
	note C_, 2
	note C_, 3
	note F_, 2
	note F_, 3
	note C_, 2
	note C_, 3
	note C_, 2
	note C_, 3
	note F_, 2
	note F_, 3
	note G_, 2
	note G_, 3
	note D_, 2
	note D_, 3
	note E_, 2
	note E_, 3
	note F_, 2
	note F_, 3
	note G_, 2
	note G_, 3
	note G_, 2
	note G_, 3
	note G_, 2
	note G_, 3
	note G_, 2
	note G_, 3
	note F_, 2
	note F_, 3
	sound_ret

MusicData_Tutorial_Noise:
	drum_envelope DR1, M1, S8
	drum_note 3
	sound_ret

MusicData_Tutorial_FDS:
	instrument 6
	note_length M1, S8
	note F_, 2
	instrument 9
	note D#, 5
	instrument 6
	note F_, 2
	tie
	instrument 9
	note D#, 5
	note_length M1, S16
	instrument 6
	note F_, 2
	note F_, 2
	note_length M1, S8
	note F_, 2
	tie
	note F_, 2
	instrument 9
	note D#, 5
	instrument 6
	note F_, 2
	tie
	instrument 9
	note D#, 5
	note_length M1, S16
	instrument 6
	note F_, 2
	note F_, 2
	instrument 9
	note_length M1_5, S8
	note D#, 5
	note_length M1, S16
	note D#, 5
	note_length M1, S8
	note D#, 5
	note D#, 5
	instrument 6
	note F_, 2
	tie
	instrument 9
	note D#, 5
	note_length M1, S16
	instrument 6
	note F_, 2
	note F_, 2
	note_length M1, S8
	note F_, 2
	tie
	note F_, 2
	instrument 9
	note D#, 5
	instrument 6
	note F_, 2
	tie
	instrument 9
	note D#, 5
	note_length M1, S16
	note D#, 5
	note D#, 5
	note_length M1, S8
	note D#, 5
	note D#, 5
	sound_ret
