MusicData_VisionaryCastle_Pulse1_1:
	instrument 23
	volume_const
	note_length M1, S16
	note G_, 4
	note F_, 4
	note E_, 4
	note D_, 4
	note F_, 4
	note E_, 4
	note D_, 4
	note C_, 4
	sound_ret

MusicData_VisionaryCastle_Pulse2_1:
	instrument 23
	volume_const
	note_length M1, S16
	note G_, 5
	note F_, 5
	note E_, 5
	note D_, 5
	note F_, 5
	note E_, 5
	note D_, 5
	note C_, 5
	sound_ret

MusicData_VisionaryCastle_Pulse1_2:
	instrument 23
	volume_const
	note_length M1, S16
	rest
	rest
	note G_, 4
	rest
	note G_, 4
	rest
	note G_, 4
	rest
	sound_ret

MusicData_VisionaryCastle_Pulse2_2:
	instrument 23
	volume_const
	note_length M1, S16
	rest
	rest
	note G_, 5
	rest
	note G_, 5
	rest
	note G_, 5
	rest
	sound_ret

MusicData_VisionaryCastle_Pulse1_3:
	instrument 21
	volume_const
	note_length M1_5, S8
	note E_, 3
	note_length M1, S16
	note E_, 3
	note_length M1, S8
	rest
	note D#, 3
	note_length M1, S4
	note E_, 3
	note F_, 3
	note_length M1_5, S8
	note E_, 3
	note_length M1, S16
	note E_, 3
	note_length M1, S8
	rest
	note D#, 3
	note_length M1, S4
	note E_, 3
	note F_, 3
	note_length M1_5, S8
	note D_, 3
	note_length M1, S16
	note D_, 3
	note_length M1, S8
	rest
	note C#, 3
	note_length M1, S4
	note D_, 3
	note E_, 3
	note_length M1_5, S8
	note D_, 3
	note_length M1, S16
	note D_, 3
	note_length M1, S8
	rest
	note C#, 3
	note_length M1, S4
	note D_, 3
	note E_, 3
	sound_ret

MusicData_VisionaryCastle_Pulse2_3:
	instrument 21
	volume_const
	note_length M1_5, S8
	note G_, 4
	note_length M1, S16
	note G_, 4
	note_length M1, S8
	rest
	note F#, 4
	note_length M1, S4
	note G_, 4
	note A_, 4
	note_length M1_5, S8
	note G_, 4
	note_length M1, S16
	note G_, 4
	note_length M1, S8
	rest
	note F#, 4
	note_length M1, S4
	note G_, 4
	note A_, 4
	note_length M1_5, S8
	note F_, 4
	note_length M1, S16
	note F_, 4
	note_length M1, S8
	rest
	note E_, 4
	note_length M1, S4
	note F_, 4
	note G_, 4
	note_length M1_5, S8
	note F_, 4
	note_length M1, S16
	note F_, 4
	note_length M1, S8
	rest
	note E_, 4
	note_length M1, S4
	note F_, 4
	note G_, 4
	sound_ret

MusicData_VisionaryCastle_Pulse1_4:
	instrument 21
	volume_const
	note_length M1, S4
	pitch_slide 6, C_, 3
	note A#, 2
	note A_, 2
	note_length M1, S8
	note G_, 2
	note A_, 2
	note G_, 2
	note A_, 2
	note_length M1, S4
	pitch_slide 6, C_, 3
	note A#, 2
	note A_, 2
	note_length M1, S8
	note G_, 2
	note A_, 2
	note G_, 2
	note A_, 2
	note_length M1, S4
	pitch_slide 6, A#, 2
	note G#, 2
	note G_, 2
	note_length M1, S8
	note F_, 2
	note G_, 2
	note F_, 2
	note G_, 2
	note_length M1, S4
	pitch_slide 6, A#, 2
	note G#, 2
	note G_, 2
	note_length M1, S8
	note F_, 2
	note G_, 2
	note F_, 2
	note G_, 2
	sound_ret

MusicData_VisionaryCastle_Pulse1_5:
	instrument 0
	volume_const
	note_length M1, S8
	note A#, 4
	pitch_slide 8, A#, 3
	tie
	note_length M1_5, S4
	note A#, 3
	rest
	note_length M1, S8
	note A#, 4
	pitch_slide 8, A#, 3
	tie
	note_length M1_5, S4
	note A#, 3
	rest
	note_length M1, S8
	note A#, 4
	pitch_slide 8, A#, 3
	tie
	note A#, 3
	tie
	note A#, 4
	pitch_slide 8, A#, 3
	tie
	note A#, 3
	tie
	note_length M1, S16
	note F_, 3
	rest
	note F_, 3
	rest
	note F_, 3
	rest
	note F_, 3
	rest
	note_length M1, S2
	rest
	sound_ret

MusicData_VisionaryCastle_Pulse2_4:
	instrument 1
	volume_const
	note_length M1, S8
	rest
	note A#, 4
	pitch_slide 8, A#, 3
	tie
	note_length M1_5, S4
	note A#, 3
	rest
	note_length M1, S8
	note A#, 4
	pitch_slide 8, A#, 3
	tie
	note_length M1_5, S4
	note A#, 3
	rest
	note_length M1, S8
	note A#, 4
	pitch_slide 8, A#, 3
	tie
	note A#, 3
	tie
	note A#, 4
	pitch_slide 8, A#, 3
	tie
	note A#, 3
	tie
	note_length M1, S16
	note F_, 3
	rest
	note F_, 3
	rest
	note F_, 3
	rest
	note F_, 3
	rest
	note_length M1_5, S4
	rest
	sound_ret

MusicData_VisionaryCastle_Hill_1:
	instrument 0
	note_length M1, S1
	rest
	rest

	rest
	rest

	rest
	note_length M1_5, S2
	rest
	note_length M1, S16
	note G_, 3
	note_length M1_5, S8
	pitch_slide 24, G_, 2
	rest
	sound_ret

MusicData_VisionaryCastle_Hill_2:
	instrument 21
	note_length M1, S16
	note C_, 3
	rest
	note C_, 3
	note C_, 3
	note C_, 3
	rest
	note C_, 3
	note C_, 3
	note C_, 3
	rest
	note C_, 3
	note C_, 3
	note C_, 3
	rest
	note C_, 3
	note C_, 3
	note C_, 3
	rest
	note C_, 3
	note C_, 3
	note C_, 3
	rest
	note C_, 3
	note C_, 3
	note C_, 3
	rest
	note C_, 3
	note C_, 3
	note C_, 3
	rest
	note C_, 3
	note C_, 3
	note A#, 2
	rest
	note A#, 2
	note A#, 2
	note A#, 2
	rest
	note A#, 2
	note A#, 2
	note A#, 2
	rest
	note A#, 2
	note A#, 2
	note A#, 2
	rest
	note A#, 2
	note A#, 2
	note A#, 2
	rest
	note A#, 2
	note A#, 2
	note A#, 2
	rest
	note A#, 2
	note A#, 2
	note A#, 2
	rest
	note A#, 2
	note A#, 2
	note A#, 2
	rest
	note A#, 2
	note A#, 2
	sound_ret

MusicData_VisionaryCastle_Hill_3:
	instrument 21
	note_length M1, S2
	rest
	note_length M1, S16
	note C_, 2
	rest
	note C_, 3
	rest
	note C_, 2
	rest
	note C_, 3
	rest
	sound_ret

MusicData_VisionaryCastle_Hill_4:
	instrument 21
	note_length M1, S16
	note C_, 2
	rest
	note C_, 3
	rest
	note C_, 2
	rest
	note C_, 3
	rest
	note C_, 2
	rest
	note C_, 3
	rest
	note C_, 2
	rest
	note C_, 3
	rest
	note F_, 3
	rest
	note F_, 3
	rest
	note F_, 3
	rest
	note F_, 3
	rest
	note_length M1, S2
	rest
	sound_ret

MusicData_VisionaryCastle_Noise_1:
	drum_envelope DR1, M1, S16
	drum_note 3
	rest
	drum_note 3
	drum_note 3
	drum_note 3
	rest
	drum_note 3
	drum_note 3
	drum_note 3
	rest
	drum_note 3
	drum_note 3
	drum_note 3
	rest
	drum_note 3
	drum_note 3
	sound_ret

MusicData_VisionaryCastle_Noise_2:
	drum_envelope DR1, M1, S16
	drum_note 3
	rest
	drum_note 3
	drum_note 3
	drum_note 3
	rest
	drum_note 3
	drum_note 3
	drum_envelope DR1, M1, S8
	drum_note 3
	drum_note 3
	drum_note 3
	drum_note 3
	sound_ret

MusicData_VisionaryCastle_Noise_3:
	drum_envelope DR1, M1, S16
	drum_note 3
	rest
	drum_note 3
	drum_note 3
	drum_note 3
	rest
	drum_note 3
	drum_note 3
	drum_note 3
	rest
	drum_note 3
	rest
	drum_note 3
	drum_note 3
	drum_note 3
	drum_note 3
	sound_ret

MusicData_VisionaryCastle_Noise_4:
	drum_envelope DR1, M1, S16
	drum_note 3
	rest
	drum_note 3
	drum_note 3
	drum_note 3
	rest
	drum_note 3
	drum_note 3
	drum_note 3
	rest
	drum_note 3
	drum_note 3
	drum_note 3
	drum_note 3
	drum_note 3
	drum_note 3
	sound_ret

MusicData_VisionaryCastle_Noise_5:
	drum_envelope DR1, M1, S8
	drum_note 3
	drum_note 3
	drum_note 3
	drum_note 3
	drum_envelope DR1, M1, S2
	rest
	sound_ret

MusicData_VisionaryCastle_FDS_1:
	instrument 9
	volume_const
	note_length M1_5, S1
	rest
	note_length M1, S8
	rest
	note D#, 5
	note D#, 5
	note D#, 5
	sound_ret

MusicData_VisionaryCastle_FDS_2:
	instrument 7
	volume_const
	note_length M1, S16
	note F_, 2
	tie
	note F_, 2
	note F_, 2
	note F_, 2
	tie
	note F_, 2
	note F_, 2
	note F_, 2
	tie
	note F_, 2
	note F_, 2
	note F_, 2
	tie
	note F_, 2
	note F_, 2
	sound_ret

MusicData_VisionaryCastle_FDS_3:
	instrument 7
	volume_const
	note_length M1, S16
	note F_, 2
	tie
	note F_, 2
	note F_, 2
	note F_, 2
	tie
	note F_, 2
	note F_, 2
	note F_, 2
	tie
	instrument 9
	note D#, 5
	tie
	note D#, 5
	note D#, 5
	note D#, 5
	note D#, 5
	sound_ret

MusicData_VisionaryCastle_FDS_4:
	instrument 7
	volume_const
	note_length M1, S8
	note F_, 2
	instrument 9
	note D#, 5
	instrument 7
	note F_, 2
	instrument 9
	note D#, 5
	instrument 7
	note F_, 2
	instrument 9
	note D#, 5
	instrument 7
	note F_, 2
	instrument 9
	note D#, 5
	sound_ret

MusicData_VisionaryCastle_FDS_5:
	instrument 7
	volume_const
	note_length M1, S8
	note F_, 2
	instrument 9
	note D#, 5
	instrument 7
	note F_, 2
	instrument 9
	note D#, 5
	instrument 7
	note F_, 2
	instrument 9
	note D#, 5
	note D#, 5
	note_length M1, S16
	note D#, 5
	note D#, 5
	sound_ret

MusicData_VisionaryCastle_FDS_6:
	instrument 7
	volume_const
	note_length M1, S8
	note F_, 2
	instrument 9
	note D#, 5
	instrument 7
	note F_, 2
	instrument 9
	note D#, 5
	note D#, 5
	note_length M1, S16
	note D#, 5
	note D#, 5
	note D#, 5
	note D#, 5
	note D#, 5
	note D#, 5
	sound_ret

MusicData_VisionaryCastle_FDS_7:
	instrument 7
	volume_const
	note_length M1, S4
	note F_, 2
	note F_, 2
	instrument 9
	note_length M1, S8
	note D#, 5
	note D#, 5
	note D#, 5
	note D#, 5
	sound_ret

MusicData_VisionaryCastle_FDS_8:
	instrument 7
	volume_const
	note_length M1, S4
	note F_, 2
	note F_, 2
	note F_, 2
	note F_, 2
	instrument 5
	note_length M1, S8
	note E_, 4
	note E_, 4
	note E_, 4
	note E_, 4
	note_length M1, S2
	rest
	sound_ret
